<svg width="8" height="14" viewBox="0 0 8 14" fill="none" xmlns="http://www.w3.org/2000/svg">
<path d="M5.31402 7.07098L0.364025 2.12098C0.181867 1.93238 0.0810724 1.67978 0.0833508 1.41758C0.0856292 1.15538 0.190798 0.904571 0.376206 0.719163C0.561614 0.533755 0.812427 0.428586 1.07462 0.426307C1.33682 0.424029 1.58942 0.524823 1.77802 0.706981L7.43502 6.36398C7.6225 6.55151 7.72781 6.80582 7.72781 7.07098C7.72781 7.33615 7.6225 7.59045 7.43502 7.77798L1.77802 13.435C1.58942 13.6171 1.33682 13.7179 1.07462 13.7157C0.812427 13.7134 0.561614 13.6082 0.376206 13.4228C0.190798 13.2374 0.0856292 12.9866 0.0833508 12.7244C0.0810724 12.4622 0.181867 12.2096 0.364025 12.021L5.31402 7.07098Z" fill="#B6B8BC"/>
</svg>
