<svg width="28" height="28" viewBox="0 0 28 28" fill="none" xmlns="http://www.w3.org/2000/svg">
<path fill-rule="evenodd" clip-rule="evenodd" d="M8.6967 20.7021C8.63198 20.6418 8.56798 20.5803 8.50472 20.5176C5.16509 17.2077 5.16509 11.8412 8.50472 8.53135C11.8443 5.22143 22.4856 5 22.4856 5C22.4856 5 23.9382 17.2077 20.5986 20.5176C17.6325 23.4572 13.0299 23.786 9.69765 21.5042L12.3826 18.2385L16.6748 17.3201L13.1711 16.973L15.3977 14.726L17.9323 14.1757L15.9281 13.5875L17.9323 10.0041L15.0815 13.1733L13.9807 11.6336L14.3682 14.1757L12.3826 16.3942L11.4622 13.5874V17.3201L8.6967 20.7021Z" fill="#AFAFB0"/>
</svg>
