<svg width="15" height="15" viewBox="0 0 15 15" fill="none" xmlns="http://www.w3.org/2000/svg">
<path d="M14.6817 14.0286C14.4017 14.3086 13.9528 14.3086 13.6773 14.0286L7.77948 8.13082L1.88168 14.0286C1.60168 14.3086 1.15279 14.3086 0.877237 14.0286C0.597236 13.7486 0.597236 13.2997 0.877237 13.0242L6.77503 7.12638L0.877237 1.22858C0.597236 0.948577 0.597236 0.499687 0.877237 0.22413C1.15724 -0.0558706 1.60613 -0.0558706 1.88168 0.22413L7.77948 6.12193L13.6773 0.22413C13.9573 -0.0558706 14.4062 -0.0558706 14.6817 0.22413C14.9617 0.504131 14.9617 0.953022 14.6817 1.22858L8.78393 7.12638L14.6817 13.0242C14.9617 13.2997 14.9617 13.7531 14.6817 14.0286Z" fill="#666666"/>
</svg>
